<svg width="416" height="448" viewBox="0 0 416 448" fill="none" xmlns="http://www.w3.org/2000/svg">
<path d="M32 384C32 400.974 38.7428 417.252 50.7452 429.255C62.7475 441.257 79.0261 448 96 448H188C189.061 448 190.078 447.579 190.828 446.828C191.579 446.078 192 445.061 192 444V260C192 258.939 191.579 257.922 190.828 257.172C190.078 256.421 189.061 256 188 256H40C37.8783 256 35.8434 256.843 34.3431 258.343C32.8429 259.843 32 261.878 32 264V384ZM192 220V112H224V220C224 221.061 224.421 222.078 225.172 222.828C225.922 223.579 226.939 224 228 224H368C373.451 224 378.862 223.07 384 221.25C393.35 217.93 401.445 211.799 407.174 203.698C412.903 195.597 415.986 185.922 416 176V160C416 147.27 410.943 135.061 401.941 126.059C392.939 117.057 380.73 112 368 112H327.46C327.112 111.994 326.771 111.898 326.471 111.72C326.172 111.542 325.924 111.289 325.752 110.986C325.58 110.683 325.49 110.34 325.492 109.992C325.493 109.644 325.586 109.302 325.76 109C335.018 93.3688 338.025 74.8155 334.178 57.0602C330.331 39.305 319.914 23.6604 305.016 13.2636C290.117 2.86675 271.839 -1.51377 253.847 1.00039C235.855 3.51455 219.478 12.7375 208 26.82C196.522 12.7375 180.145 3.51455 162.153 1.00039C144.16 -1.51377 125.883 2.86675 110.984 13.2636C96.0863 23.6604 85.6692 39.305 81.8219 57.0602C77.9746 74.8155 80.9817 93.3688 90.24 109C90.4142 109.302 90.5066 109.644 90.5081 109.992C90.5095 110.34 90.4199 110.683 90.2481 110.986C90.0764 111.289 89.8284 111.542 89.5288 111.72C89.2292 111.898 88.8883 111.994 88.54 112H48C35.2696 112 23.0606 117.057 14.0589 126.059C5.05713 135.061 0 147.27 0 160V176C0.0141222 185.922 3.09703 195.597 8.82603 203.698C14.555 211.799 22.6496 217.93 32 221.25C37.1382 223.07 42.5491 224 48 224H188C189.061 224 190.078 223.579 190.828 222.828C191.579 222.078 192 221.061 192 220ZM224 72C224 64.0887 226.346 56.3551 230.741 49.7772C235.136 43.1992 241.384 38.0723 248.693 35.0448C256.002 32.0173 264.044 31.2251 271.804 32.7686C279.563 34.312 286.69 38.1216 292.284 43.7157C297.878 49.3098 301.688 56.4371 303.231 64.1964C304.775 71.9556 303.983 79.9983 300.955 87.3073C297.928 94.6163 292.801 100.863 286.223 105.259C279.645 109.654 271.911 112 264 112H224V72ZM149.14 32.1C154.62 31.7071 160.122 32.4474 165.303 34.2747C170.485 36.1019 175.234 38.9769 179.255 42.7204C183.276 46.464 186.483 50.9957 188.676 56.0332C190.869 61.0707 192 66.5059 192 72V112H152C141.657 111.973 131.726 107.941 124.292 100.75C116.858 93.559 112.498 83.7676 112.128 73.4311C111.758 63.0946 115.407 53.0166 122.307 45.3122C129.208 37.6078 138.825 32.876 149.14 32.11V32.1ZM228 448H320C336.974 448 353.252 441.257 365.255 429.255C377.257 417.252 384 400.974 384 384V264C384 261.878 383.157 259.843 381.657 258.343C380.157 256.843 378.122 256 376 256H228C226.939 256 225.922 256.421 225.172 257.172C224.421 257.922 224 258.939 224 260V444C224 445.061 224.421 446.078 225.172 446.828C225.922 447.579 226.939 448 228 448Z" fill="white"/>
</svg>
