<svg xmlns="http://www.w3.org/2000/svg" xmlns:xlink="http://www.w3.org/1999/xlink" width="64" height="64.004" viewBox="0 0 64 64.004">
  <defs>
    <linearGradient id="linear-gradient" x1="0.5" x2="0.5" y2="1" gradientUnits="objectBoundingBox">
      <stop offset="0" stop-color="#a28454"/>
      <stop offset="1" stop-color="#c9b27d"/>
    </linearGradient>
  </defs>
  <g id="Social_Distance_6ft" data-name="Social Distance 6ft" transform="translate(0 0.004)">
    <path id="Path_1901" data-name="Path 1901" d="M32,29a1,1,0,0,0-1,1v2a1,1,0,0,0,2,0V30A1,1,0,0,0,32,29Z" fill="url(#linear-gradient)"/>
    <path id="Path_1902" data-name="Path 1902" d="M32,23a1,1,0,0,0-1,1v2a1,1,0,0,0,2,0V24A1,1,0,0,0,32,23Z" fill="url(#linear-gradient)"/>
    <path id="Path_1903" data-name="Path 1903" d="M32,35a1,1,0,0,0-1,1v2a1,1,0,0,0,2,0V36A1,1,0,0,0,32,35Z" fill="url(#linear-gradient)"/>
    <path id="Path_1904" data-name="Path 1904" d="M32,41a1,1,0,0,0-1,1v2a1,1,0,0,0,2,0V42A1,1,0,0,0,32,41Z" fill="url(#linear-gradient)"/>
    <path id="Path_1905" data-name="Path 1905" d="M32,47a1,1,0,0,0-1,1v2a1,1,0,0,0,2,0V48A1,1,0,0,0,32,47Z" fill="url(#linear-gradient)"/>
    <path id="Path_1906" data-name="Path 1906" d="M32,53a1,1,0,0,0-1,1v2a1,1,0,0,0,2,0V54A1,1,0,0,0,32,53Z" fill="url(#linear-gradient)"/>
    <path id="Path_1907" data-name="Path 1907" d="M32,59a1,1,0,0,0-1,1v2a1,1,0,0,0,2,0V60A1,1,0,0,0,32,59Z" fill="url(#linear-gradient)"/>
    <path id="Path_1908" data-name="Path 1908" d="M43,17V14a2.987,2.987,0,0,0-5-2.22A2.987,2.987,0,0,0,33,14v3a1,1,0,0,0,2,0V14a1,1,0,0,1,2,0v3a1,1,0,0,0,2,0V14a1,1,0,0,1,2,0v3a1,1,0,0,0,2,0Z" fill="url(#linear-gradient)"/>
    <path id="Path_1909" data-name="Path 1909" d="M30,16H26.27a2,2,0,0,1,1-.81l1.64-.66A3.39,3.39,0,0,0,27.61,8H27a3,3,0,0,0-3,3,1,1,0,0,0,2,0,1,1,0,0,1,1-1h.61a1.38,1.38,0,0,1,.52,2.67l-1.64.66A3.93,3.93,0,0,0,24,17a1,1,0,0,0,1,1h5a1,1,0,0,0,0-2Z" fill="url(#linear-gradient)"/>
    <path id="Path_1910" data-name="Path 1910" d="M10.08,4.38a1,1,0,0,0,.21.33l3,3a1,1,0,1,0,1.42-1.42L13.41,5H50.59l-1.3,1.29a1,1,0,1,0,1.42,1.42l3-3a1.034,1.034,0,0,0,0-1.42l-3-3a1,1,0,0,0-1.42,1.42L50.59,3H13.41l1.3-1.29A1,1,0,1,0,13.29.29l-3,3a1.034,1.034,0,0,0-.21,1.09Z" fill="url(#linear-gradient)"/>
    <path id="Path_1911" data-name="Path 1911" d="M15.44,25A5.93,5.93,0,0,0,17,21V18A6,6,0,1,0,5,18v3a5.93,5.93,0,0,0,1.56,4A7,7,0,0,0,0,32V44a3,3,0,0,0,3,3,2.81,2.81,0,0,0,1-.18V59.4A4.21,4.21,0,0,0,2,63a1,1,0,0,0,1,1h7a1,1,0,0,0,1-1h0a1,1,0,0,0,1,1h7a1,1,0,0,0,1-1,4.17,4.17,0,0,0-2-3.6V46.82A2.81,2.81,0,0,0,19,47a3,3,0,0,0,3-3V32a7,7,0,0,0-6.56-7ZM7,18a4,4,0,0,1,8,0v3a4,4,0,0,1-8,0ZM20,44a.99.99,0,0,1-1.38.92h-.08A1,1,0,0,1,18,44V31a1,1,0,0,0-2,0V60a1,1,0,0,0,.54.89l.23.12a2.23,2.23,0,0,1,1,1H13L12,44a1,1,0,0,0-2,0L9.05,62H4.23a2.25,2.25,0,0,1,1-1l.21-.11A1,1,0,0,0,6,60V31a1,1,0,0,0-2,0V44a1,1,0,0,1-.54.88H3.38A1,1,0,0,1,3,45a1,1,0,0,1-1-1V32a5,5,0,0,1,5-5h8a5,5,0,0,1,5,5Z" fill="url(#linear-gradient)"/>
    <path id="Path_1912" data-name="Path 1912" d="M57.44,25A5.93,5.93,0,0,0,59,21V18a6,6,0,1,0-12,0v3a5.93,5.93,0,0,0,1.56,4A7,7,0,0,0,42,32V44a3,3,0,0,0,3,3,2.81,2.81,0,0,0,1-.18V59.4A4.21,4.21,0,0,0,44,63a1,1,0,0,0,1,1h7a1,1,0,0,0,1-1h0a1,1,0,0,0,1,1h7a1,1,0,0,0,1-1,4.17,4.17,0,0,0-2-3.6V46.82A2.81,2.81,0,0,0,61,47a3,3,0,0,0,3-3V32a7,7,0,0,0-6.56-7ZM49,18a4,4,0,0,1,8,0v3a4,4,0,0,1-8,0ZM62,44a.99.99,0,0,1-1.38.92h-.08A1,1,0,0,1,60,44V31a1,1,0,0,0-2,0V60a1,1,0,0,0,.54.89l.23.12a2.23,2.23,0,0,1,1,1H55L54,44a1,1,0,0,0-2,0L51,62H46.23a2.25,2.25,0,0,1,1-1l.21-.11A1,1,0,0,0,48,60V31a1,1,0,0,0-2,0V44a1,1,0,0,1-.54.88h-.08A.922.922,0,0,1,44,44V32a5,5,0,0,1,5-5h8a5,5,0,0,1,5,5Z" fill="url(#linear-gradient)"/>
  </g>
</svg>
